<svg width="36" height="37" viewBox="0 0 36 37" fill="none" xmlns="http://www.w3.org/2000/svg">
<path d="M17 5.3335C17 4.78121 17.4477 4.3335 18 4.3335C18.5523 4.3335 19 4.78121 19 5.3335V6.3335C19 6.88578 18.5523 7.3335 18 7.3335C17.4477 7.3335 17 6.88578 17 6.3335V5.3335Z" fill="#006666"/>
<path d="M5 19.3335C4.44772 19.3335 4 18.8858 4 18.3335C4 17.7812 4.44772 17.3335 5 17.3335H6C6.55228 17.3335 7 17.7812 7 18.3335C7 18.8858 6.55228 19.3335 6 19.3335H5Z" fill="#006666"/>
<path d="M17 30.3335C17 29.7812 17.4477 29.3335 18 29.3335C18.5523 29.3335 19 29.7812 19 30.3335V31.3335C19 31.8858 18.5523 32.3335 18 32.3335C17.4477 32.3335 17 31.8858 17 31.3335V30.3335Z" fill="#006666"/>
<path d="M30 19.3335C29.4477 19.3335 29 18.8858 29 18.3335C29 17.7812 29.4477 17.3335 30 17.3335H31C31.5523 17.3335 32 17.7812 32 18.3335C32 18.8858 31.5523 19.3335 31 19.3335H30Z" fill="#006666"/>
<path d="M17 11.3335C17 10.7812 17.4477 10.3335 18 10.3335C18.5523 10.3335 19 10.7812 19 11.3335V19.3335H17V11.3335Z" fill="#006666"/>
<path d="M17 17.3335H26C26.5523 17.3335 27 17.7812 27 18.3335C27 18.8858 26.5523 19.3335 26 19.3335H17V17.3335Z" fill="#006666"/>
<circle cx="18" cy="18.3335" r="17" stroke="#006666" stroke-width="2"/>
</svg>
